<svg aria-hidden="true" style="position: absolute; width: 0; height: 0; overflow: hidden;" version="1.1" xmlns="http://www.w3.org/2000/svg" xmlns:xlink="http://www.w3.org/1999/xlink">
<defs>
<symbol id="icon-button-arrow-up" viewBox="0 0 29 32">
<path d="M13.091 0.582l-12.509 12.509c-0.873 0.873-0.873 2.036 0 2.909 1.745 1.745 2.618 2.036 3.782 0.873l7.273-7.273v22.4h5.527v-22.4l7.273 7.273c1.164 1.164 2.036 0.873 3.782-0.873 0.873-0.873 0.873-2.036 0-2.909l-12.218-12.509c-0.291-0.291-0.873-0.582-1.455-0.582s-1.164 0.291-1.455 0.582z"></path>
</symbol>
<symbol id="icon-groupproducts" viewBox="0 0 139 32">
<path d="M85.333 16c0 8.837-7.163 16-16 16s-16-7.163-16-16c0-8.837 7.163-16 16-16s16 7.163 16 16z"></path>
<path d="M32 16c0 8.837-7.163 16-16 16s-16-7.163-16-16c0-8.837 7.163-16 16-16s16 7.163 16 16z"></path>
<path d="M138.667 16c0 8.837-7.163 16-16 16s-16-7.163-16-16c0-8.837 7.163-16 16-16s16 7.163 16 16z"></path>
</symbol>
<symbol id="icon-telegram" viewBox="0 0 32 32">
<path d="M12.48 20l-0.48 6.88c0.8 0 1.12-0.32 1.44-0.64l3.52-3.2 7.36 4.96c1.28 0.64 2.24 0.32 2.72-1.12l4.8-21.12c0.48-1.92-0.8-2.56-2.080-2.080l-28.32 10.080c-1.92 0.8-1.92 1.76-0.32 2.24l7.2 2.080 16.8-9.92c0.8-0.48 1.44-0.16 0.96 0.32 0.16 0-13.6 11.52-13.6 11.52z"></path>
</symbol>
<symbol id="icon-facebook" viewBox="0 0 32 32">
<path d="M22.72 16h-4.32v16h-6.56v-16h-3.2v-5.6h3.2v-3.68c0-2.56 1.12-6.72 6.56-6.72h4.96v5.44h-3.52c-0.64 0-1.44 0.32-1.44 1.6v3.36h4.96l-0.64 5.6z"></path>
</symbol>
<symbol id="icon-github" viewBox="0 0 32 32">
<path d="M16 0c-8.8 0-16 7.2-16 16 0 7.52 5.28 14.24 12.32 16v-5.28c-0.64 0.16-1.44 0.16-2.080 0-0.96-0.32-1.76-0.96-2.24-1.92-0.32-0.64-0.96-1.28-1.76-1.28l-0.16-1.92c1.44-0.16 2.72 0.96 3.52 2.080 0.32 0.48 0.64 0.96 1.28 0.96 0.48 0.16 0.96 0 1.6-0.16 0.16-1.12 0.64-1.6 1.12-2.24-4.16-0.64-5.76-2.88-6.56-4.64-0.96-2.080-0.48-4.96 0.96-6.72 0 0 0.16-0.16 0-0.16-0.64-2.24 0.32-4 0.32-4.16 0.8 0.16 0.96-0.32 3.52 1.28l0.48 0.32c0.16 0.16 0.16 0 0.32 0 1.12-0.32 2.24-0.48 3.36-0.48s2.24 0.16 3.36 0.48h0.16c0 0 0 0 0.16 0 3.2-1.92 3.2-1.28 4-1.6 0 0.16 0.96 1.92 0.16 4.16-0.16 0.32 2.88 2.88 1.28 7.2-0.64 1.76-2.4 4-6.56 4.64 0.48 0.8 1.12 1.28 1.12 2.88v6.56c7.040-1.76 12.32-8.48 12.32-16 0-8.8-7.2-16-16-16z"></path>
</symbol>
<symbol id="icon-ellipse" viewBox="0 0 35 32">
<path d="M33.053 16c0 8.837-7.163 16-16 16s-16-7.163-16-16c0-8.837 7.163-16 16-16s16 7.163 16 16z"></path>
</symbol>
<symbol id="icon-arrow-left" viewBox="0 0 19 32">
<path d="M13.76 31.040l-12.8-12.8c-1.28-1.28-1.28-3.2 0-4.48l12.8-12.8c1.28-1.28 3.2-1.28 4.48 0s1.28 3.2 0 4.48l-10.56 10.56 10.56 10.56c0 0 0 0 0 0 1.28 1.28 1.28 3.2 0 4.48-0.64 0.64-1.28 0.96-2.24 0.96s-1.6-0.32-2.24-0.96z"></path>
</symbol>
<symbol id="icon-button-arrow-2" viewBox="0 0 35 32">
<path d="M34.528 14.4l-13.888-13.632c-1.088-1.056-2.24-1.024-3.328 0.032-1.984 1.92-2.24 2.976-0.96 4.192l8.128 7.968h-24.48v6.048h24.48l-8.128 7.968c-1.248 1.248-1.024 2.272 0.96 4.192 1.088 1.056 2.24 1.088 3.328 0.032l13.856-13.6c0.48-0.416 0.704-1.024 0.704-1.6s-0.224-1.184-0.672-1.6z"></path>
</symbol>
<symbol id="icon-button-arrow-1" viewBox="0 0 19 32">
<path d="M3.2 32c-0.832 0-1.632-0.32-2.272-0.928-0.578-0.577-0.936-1.375-0.936-2.256s0.358-1.679 0.936-2.256l10.56-10.56-10.56-10.528c-0.577-0.577-0.934-1.375-0.934-2.256 0-1.762 1.428-3.19 3.19-3.19 0.881 0 1.679 0.357 2.256 0.934l12.8 12.8c1.248 1.248 1.248 3.264 0 4.512l-12.8 12.8c-0.608 0.608-1.408 0.928-2.24 0.928z"></path>
</symbol>
<symbol id="icon-home" viewBox="0 0 32 32">
<path d="M31.6 15.6c0.56-0.64 0.533-1.627-0.107-2.213l-0.027-0.027-14.293-12.933c-0.305-0.265-0.706-0.427-1.145-0.427-0.453 0-0.866 0.172-1.176 0.455l0.001-0.001-14.347 13.6c-0.64 0.587-0.667 1.573-0.107 2.213l0.027 0.027 0.373 0.4c0.587 0.64 1.547 0.72 2.133 0.16l1.067-0.987v14.533c0 0.907 0.693 1.6 1.573 1.6h5.6c0.872-0.015 1.573-0.726 1.573-1.6 0-0 0-0 0-0v0-10.187h7.147v10.16c-0.053 0.907 0.587 1.627 1.44 1.627h5.92c0.853 0 1.547-0.72 1.547-1.6v-14.347l0.667 0.613c0.373 0.32 1.12 0.053 1.707-0.587 0.027 0 0.427-0.48 0.427-0.48z"></path>
</symbol>
<symbol id="icon-burger" viewBox="0 0 46 32">
<path d="M45.714 30.857h-45.714v-2.286h45.714v2.286zM45.714 17.143h-45.714v-2.286h45.714v2.286zM45.714 3.429h-45.714v-2.286h45.714v2.286z"></path>
</symbol>
<symbol id="icon-close" viewBox="0 0 32 32">
<path d="M28.76 30.7l-12.78-13.28-13.28 12.78-1.4-1.44 13.28-12.78-12.78-13.28 1.44-1.4 12.78 13.28 13.28-12.78 1.4 1.44-13.28 12.78 12.78 13.28z"></path>
</symbol>
<symbol id="icon-quotes" viewBox="0 0 43 32">
<path d="M32.014 0c1.928 0 3.75 0.52 5.464 1.561s3.107 2.537 4.178 4.488c1.029 1.951 1.543 4.25 1.543 6.894s-0.643 5.225-1.928 7.74c-0.429 0.91-1.2 2.081-2.315 3.512-1.157 1.43-2.228 2.666-3.214 3.707l-4.050 4.098-2.893-4.813c2.063-1.302 3.824-2.855 5.306-4.646l0.030-0.037c1.542-1.821 2.314-3.49 2.314-5.008 0-0.781-0.171-1.41-0.514-1.886-1.5 1.084-3.172 1.626-5.014 1.626-1.328 0-2.593-0.412-3.793-1.236-1.237-0.782-2.237-1.834-2.935-3.078l-0.022-0.043c-0.771-1.258-1.157-2.558-1.157-3.902 0-1.518 0.45-2.97 1.35-4.358 0.866-1.389 2.011-2.526 3.364-3.356l0.044-0.025c1.37-0.824 2.784-1.236 4.242-1.236zM8.936 0c1.928 0 3.75 0.52 5.464 1.561s3.107 2.536 4.178 4.488c1.029 1.951 1.543 4.25 1.543 6.894 0 1.864-0.236 3.534-0.707 5.008-0.472 1.518-1.286 3.1-2.443 4.748-1.114 1.561-2.164 2.862-3.15 3.902-0.986 1.084-2.7 2.883-5.143 5.398l-2.893-4.813c2.063-1.302 3.824-2.855 5.306-4.646l0.030-0.037c1.542-1.821 2.314-3.49 2.314-5.008 0-0.781-0.172-1.41-0.514-1.886-1.5 1.084-3.172 1.626-5.014 1.626-1.328 0-2.593-0.412-3.793-1.236-1.237-0.782-2.237-1.834-2.935-3.078l-0.022-0.043c-0.771-1.258-1.157-2.558-1.157-3.902 0-1.518 0.429-2.97 1.286-4.358 0.866-1.389 2.011-2.526 3.364-3.356l0.045-0.025c1.37-0.824 2.784-1.236 4.242-1.236z"></path>
</symbol>
</defs>
</svg>
