<svg aria-hidden="true" style="position: absolute; width: 0; height: 0; overflow: hidden;" version="1.1"
    xmlns="http://www.w3.org/2000/svg" xmlns:xlink="http://www.w3.org/1999/xlink">
    <defs>
        <symbol id="icon-button-arrow-2" viewBox="0 0 35 32">
            <path fill="#d71d4f" style="fill: var(--color1, #d71d4f)"
                d="M34.528 14.4l-13.888-13.632c-1.088-1.056-2.24-1.024-3.328 0.032-1.984 1.92-2.24 2.976-0.96 4.192l8.128 7.968h-24.48v6.048h24.48l-8.128 7.968c-1.248 1.248-1.024 2.272 0.96 4.192 1.088 1.056 2.24 1.088 3.328 0.032l13.856-13.6c0.48-0.416 0.704-1.024 0.704-1.6s-0.224-1.184-0.672-1.6z">
            </path>
        </symbol>
        <symbol id="icon-facebook" viewBox="0 0 32 32">
            <path fill="#fea5bb" style="fill: var(--color2, #fea5bb)"
                d="M16 32c8.837 0 16-7.163 16-16s-7.163-16-16-16-16 7.163-16 16 7.163 16 16 16z"></path>
            <path fill="#fff" style="fill: var(--color3, #fff)"
                d="M20.446 15.981h-2.611v9.619h-3.955v-9.619h-1.88v-3.379h1.88v-2.187c0-1.564 0.739-4.014 3.991-4.014l2.929 0.012v3.281h-2.125c-0.348 0-0.839 0.176-0.839 0.922v1.989h2.955l-0.345 3.377z">
            </path>
        </symbol>
        <symbol id="icon-button-arrow-1" viewBox="0 0 19 32">
            <path fill="#d41443" style="fill: var(--color4, #d41443)"
                d="M3.2 32c-0.832 0-1.632-0.32-2.272-0.928-0.578-0.577-0.936-1.375-0.936-2.256s0.358-1.679 0.936-2.256l10.56-10.56-10.56-10.528c-0.577-0.577-0.934-1.375-0.934-2.256 0-1.762 1.428-3.19 3.19-3.19 0.881 0 1.679 0.357 2.256 0.934l12.8 12.8c1.248 1.248 1.248 3.264 0 4.512l-12.8 12.8c-0.608 0.608-1.408 0.928-2.24 0.928z">
            </path>
        </symbol>
        <symbol id="icon-home" viewBox="0 0 32 32">
            <path fill="#d31342" style="fill: var(--color5, #d31342)"
                d="M31.6 15.6c0.56-0.64 0.533-1.627-0.107-2.213l-0.027-0.027-14.293-12.933c-0.305-0.265-0.706-0.427-1.145-0.427-0.453 0-0.866 0.172-1.176 0.455l0.001-0.001-14.347 13.6c-0.64 0.587-0.667 1.573-0.107 2.213l0.027 0.027 0.373 0.4c0.587 0.64 1.547 0.72 2.133 0.16l1.067-0.987v14.533c0 0.907 0.693 1.6 1.573 1.6h5.6c0.872-0.015 1.573-0.726 1.573-1.6 0-0 0-0 0-0v0-10.187h7.147v10.16c-0.053 0.907 0.587 1.627 1.44 1.627h5.92c0.853 0 1.547-0.72 1.547-1.6v-14.347l0.667 0.613c0.373 0.32 1.12 0.053 1.707-0.587 0.027 0 0.427-0.48 0.427-0.48z">
            </path>
        </symbol>
        <symbol id="icon-burger" viewBox="0 0 46 32">
            <path fill="#d41443" style="fill: var(--color4, #d41443)"
                d="M45.714 30.857h-45.714v-2.286h45.714v2.286zM45.714 17.143h-45.714v-2.286h45.714v2.286zM45.714 3.429h-45.714v-2.286h45.714v2.286z">
            </path>
        </symbol>
        <symbol id="icon-close" viewBox="0 0 32 32">
            <path fill="#fff" style="fill: var(--color3, #fff)"
                d="M28.76 30.7l-12.78-13.28-13.28 12.78-1.4-1.44 13.28-12.78-12.78-13.28 1.44-1.4 12.78 13.28 13.28-12.78 1.4 1.44-13.28 12.78 12.78 13.28z">
            </path>
        </symbol>
        <symbol id="icon-telegram" viewBox="0 0 32 32">
            <path fill="#fea5bb" style="fill: var(--color2, #fea5bb)"
                d="M32 16c0 8.837-7.163 16-16 16s-16-7.163-16-16c0-8.837 7.163-16 16-16s16 7.163 16 16z"></path>
            <path fill="#fff" style="fill: var(--color3, #fff)"
                d="M12.867 18.376l-0.317 4.169c0.455 0 0.651-0.183 0.888-0.401l2.13-1.901 4.414 3.018c0.809 0.421 1.381 0.199 1.599-0.696l2.898-12.673c0.258-1.117-0.433-1.554-1.221-1.28l-17.032 6.086c-1.162 0.422-1.145 1.026-0.198 1.301l4.354 1.264 10.115-5.907c0.476-0.295 0.909-0.132 0.553 0.163l-8.183 6.856z">
            </path>
        </symbol>
        <symbol id="icon-github" viewBox="0 0 32 32">
            <path fill="#fea5bb" style="fill: var(--color2, #fea5bb)"
                d="M32 16c0 8.837-7.163 16-16 16s-16-7.163-16-16c0-8.837 7.163-16 16-16s16 7.163 16 16z"></path>
            <path fill="#fff" style="fill: var(--color3, #fff)"
                d="M16 6.588c-5.17 0-9.412 4.242-9.412 9.412 0 4.411 3.096 8.419 7.206 9.412v-3.113c-0.162 0.041-0.349 0.064-0.54 0.064-0.234 0-0.46-0.035-0.672-0.1l0.016 0.004c-0.556-0.164-1.008-0.535-1.344-1.099-0.214-0.36-0.593-0.753-0.988-0.724l-0.097-1.098c0.856-0.073 1.594 0.521 2.033 1.258 0.196 0.328 0.421 0.52 0.709 0.605 0.278 0.083 0.577 0.043 0.925-0.080 0.088-0.697 0.408-0.958 0.649-1.327-2.452-0.365-3.429-1.666-3.816-2.692-0.514-1.364-0.238-3.066 0.67-4.143 0.018-0.021 0.050-0.075 0.038-0.113-0.417-1.259 0.090-2.3 0.109-2.41 0.481 0.141 0.559-0.143 2.089 0.786l0.264 0.159c0.111 0.066 0.075 0.028 0.186 0.019 0.59-0.166 1.269-0.266 1.97-0.276l0.006-0c0.668 0.008 1.336 0.104 2.002 0.284l0.086 0.009c-0.008-0.002 0.024-0.006 0.075-0.037 1.911-1.158 1.842-0.779 2.355-0.946 0.019 0.111 0.519 1.169 0.106 2.411-0.056 0.171 1.656 1.739 0.708 4.256-0.388 1.026-1.365 2.328-3.816 2.693 0.314 0.48 0.692 0.734 0.69 1.722v3.886c4.109-0.993 7.206-5 7.206-9.412 0-5.17-4.242-9.412-9.412-9.412z">
            </path>
        </symbol>
        <symbol id="icon-quotes" viewBox="0 0 43 32">
            <path fill="#e1e1e1" style="fill: var(--color6, #e1e1e1)"
                d="M32.014 0c1.928 0 3.75 0.52 5.464 1.561s3.107 2.537 4.178 4.488c1.029 1.951 1.543 4.25 1.543 6.894s-0.643 5.225-1.928 7.74c-0.429 0.91-1.2 2.081-2.315 3.512-1.157 1.43-2.228 2.666-3.214 3.707l-4.050 4.098-2.893-4.813c2.063-1.302 3.824-2.855 5.306-4.646l0.030-0.037c1.542-1.821 2.314-3.49 2.314-5.008 0-0.781-0.171-1.41-0.514-1.886-1.5 1.084-3.172 1.626-5.014 1.626-1.328 0-2.593-0.412-3.793-1.236-1.237-0.782-2.237-1.834-2.935-3.078l-0.022-0.043c-0.771-1.258-1.157-2.558-1.157-3.902 0-1.518 0.45-2.97 1.35-4.358 0.866-1.389 2.011-2.526 3.364-3.356l0.044-0.025c1.37-0.824 2.784-1.236 4.242-1.236zM8.936 0c1.928 0 3.75 0.52 5.464 1.561s3.107 2.536 4.178 4.488c1.029 1.951 1.543 4.25 1.543 6.894 0 1.864-0.236 3.534-0.707 5.008-0.472 1.518-1.286 3.1-2.443 4.748-1.114 1.561-2.164 2.862-3.15 3.902-0.986 1.084-2.7 2.883-5.143 5.398l-2.893-4.813c2.063-1.302 3.824-2.855 5.306-4.646l0.030-0.037c1.542-1.821 2.314-3.49 2.314-5.008 0-0.781-0.172-1.41-0.514-1.886-1.5 1.084-3.172 1.626-5.014 1.626-1.328 0-2.593-0.412-3.793-1.236-1.237-0.782-2.237-1.834-2.935-3.078l-0.022-0.043c-0.771-1.258-1.157-2.558-1.157-3.902 0-1.518 0.429-2.97 1.286-4.358 0.866-1.389 2.011-2.526 3.364-3.356l0.045-0.025c1.37-0.824 2.784-1.236 4.242-1.236z">
            </path>
        </symbol>
    </defs>
</svg>